#N canvas 50 50 1280 1030 10;
#X text 30 15 MockMidterm.pd v2 - NES Sound Chip Emulation;
#X text 30 40 CMPM 125 Mock Midterm | Devin + partner | Pure Data + OSC from Unity;
#X text 30 75 INSTRUCTIONS:;
#X text 30 100 1) Click the DSP toggle below to enable audio.;
#X text 30 125 2) Open BallDemo_MockMidterm in Unity and press Play - or use the TEST PANEL on the right.;
#X text 30 150 3) Unity sends OSC to 127.0.0.1:8000 (UDP \, vanilla netreceive - no mrpeach dependency).;
#X text 30 175 4) Voices listen on internal buses [r osctrig] / [r oscwall] / [r osctempo] / [r oscplayseq].;
#X text 30 200 5) Adjust per-voice volume \, voice parameters \, and master to mix in real-time.;
#X obj 30 235 tgl 15 0 empty empty empty 17 7 0 10 -262144 -1 -1 0 1;
#X msg 30 265 \; pd dsp \$1;
#X text 55 237 DSP on/off;
#N canvas 1099 23 623 462 oscReceive 0;
#X obj 55 184 netreceive -u -b;
#X msg 78 143 listen 0;
#X text 152 143 stop listening;
#X text 64 58 packets from network;
#X text 173 177 UDP packets \, binary output \, f 13;
#X obj 45 314 print;
#X obj 45 272 oscparse;
#X text 150 114 listen on port 8000;
#X obj 177 269 oscparse;
#X obj 177 293 list trim;
#X floatatom 140 380 5 0 0 0 - - -;
#X text 241 267 Parse the OSC message;
#X obj 177 319 route unity;
#X obj 139 357 route trigger;
#X obj 140 407 s osctrig;
#X msg 66 115 listen 8000;
#X obj 66 84 loadbang;
#X floatatom 244 382 5 0 0 0 - - -;
#X obj 243 359 route tempo;
#X obj 244 409 s osctempo;
#X floatatom 339 382 5 0 0 0 - - -;
#X obj 338 359 route playseq;
#X obj 339 409 s oscplayseq;
#X floatatom 437 382 5 0 0 0 - - -;
#X obj 436 359 route colwall;
#X obj 437 409 s oscwall;
#X connect 0 0 6 0;
#X connect 0 0 8 0;
#X connect 1 0 0 0;
#X connect 6 0 5 0;
#X connect 8 0 9 0;
#X connect 9 0 12 0;
#X connect 10 0 14 0;
#X connect 12 0 13 0;
#X connect 12 0 18 0;
#X connect 12 0 21 0;
#X connect 12 0 24 0;
#X connect 13 0 10 0;
#X connect 15 0 0 0;
#X connect 16 0 15 0;
#X connect 17 0 19 0;
#X connect 18 0 17 0;
#X connect 20 0 22 0;
#X connect 21 0 20 0;
#X connect 23 0 25 0;
#X connect 24 0 23 0;
#X restore 30 305 pd oscReceive;
#N canvas 727 97 450 300 oscSend 0;
#X msg 158 207 disconnect;
#X obj 61 253 netsend -u -b;
#X obj 59 55 list prepend send;
#X obj 59 80 list trim;
#X msg 150 175 connect 127.0.0.1 8001;
#X obj 59 29 r oscOut;
#X text 301 163 send to port 8001;
#X msg 147 148 connect localhost 8001;
#X obj 147 108 loadbang;
#X connect 0 0 1 0;
#X connect 2 0 3 0;
#X connect 3 0 1 0;
#X connect 4 0 1 0;
#X connect 5 0 2 0;
#X connect 7 0 1 0;
#X connect 8 0 7 0;
#X restore 30 335 pd oscSend;
#X text 175 305 listens on UDP port 8000 - receives /unity/trigger \, /unity/colwall \, /unity/tempo \, /unity/playseq;
#X text 175 335 sends to 127.0.0.1:8001 (boilerplate from reference \; not used by current voices);
#X text 30 365 VOICES (one abstraction per game event \, each with its own per-voice volume slider below);
#X text 100 395 PICKUP - Pulse 1 + Pulse 2;
#X text 100 415 trig: /unity/trigger;
#X obj 130 470 pickup;
#X obj 100 425 hsl 128 15 0 1 0 0 empty empty empty -2 -8 0 10 -262144 -1 -1 0 1;
#X obj 230 445 pack f 20;
#X obj 230 480 line~;
#X obj 130 510 *~;
#X text 350 395 WALL - Noise;
#X text 350 415 trig: /unity/colwall;
#X obj 380 470 wall;
#X obj 350 425 hsl 128 15 0 1 0 0 empty empty empty -2 -8 0 10 -262144 -1 -1 0 1;
#X obj 480 445 pack f 20;
#X obj 480 480 line~;
#X obj 380 510 *~;
#X text 600 395 SEQUENCER - Triangle;
#X text 600 415 trig: /unity/tempo \, /unity/playseq;
#X obj 630 470 sequencer;
#X obj 600 425 hsl 128 15 0 1 0 0 empty empty empty -2 -8 0 10 -262144 -1 -1 0 1;
#X obj 730 445 pack f 20;
#X obj 730 480 line~;
#X obj 630 510 *~;
#X obj 250 555 +~;
#X obj 440 555 +~;
#X text 870 395 MASTER VOLUME;
#X obj 870 425 hsl 128 15 0 1 0 0 empty empty empty -2 -8 0 10 -262144 -1 -1 0 1;
#X obj 1000 445 pack f 20;
#X obj 1000 480 line~;
#X obj 870 555 *~;
#X obj 870 600 dac~;
#X text 30 660 VOICE PARAMETERS (control buses - move sliders to retune voices in real-time);
#X text 30 685 Pulse 1 duty cycle (0-1);
#X obj 30 705 hsl 200 15 0 1 0 1 pickup_duty1 empty empty -2 -8 0 10 -262144 -1 -1 0.5 1;
#X text 30 730 Pulse 2 duty cycle (0-1);
#X obj 30 750 hsl 200 15 0 1 0 1 pickup_duty2 empty empty -2 -8 0 10 -262144 -1 -1 0.25 1;
#X text 280 685 Pickup pitch sweep amount (semitones \, -12 to 12);
#X obj 280 705 hsl 200 15 -12 12 0 1 pickup_sweep_amt empty empty -2 -8 0 10 -262144 -1 -1 0 1;
#X text 280 730 Pickup pitch sweep time (ms \, 10-200);
#X obj 280 750 hsl 200 15 10 200 0 1 pickup_sweep_time empty empty -2 -8 0 10 -262144 -1 -1 30 1;
#X text 530 685 Wall low-pass cutoff (Hz \, 200-8000);
#X obj 530 705 hsl 200 15 200 8000 0 1 wall_lp_cutoff empty empty -2 -8 0 10 -262144 -1 -1 1500 1;
#X text 870 15 TEST PANEL (manual triggers - no Unity needed);
#X text 870 42 Pickup (click to trigger at semitone 0-8 in C major):;
#X msg 870 60 0;
#X msg 900 60 1;
#X msg 930 60 2;
#X msg 960 60 3;
#X msg 990 60 4;
#X msg 1020 60 5;
#X msg 1050 60 6;
#X msg 1080 60 7;
#X msg 1110 60 8;
#X obj 870 90 s osctrig;
#X text 870 115 Wall noise (click bang to trigger /unity/colwall):;
#X obj 870 140 bng 25 250 50 0 empty empty empty 17 7 0 10 -262144 -1 -1;
#X obj 905 145 s oscwall;
#X text 870 175 Sequencer start (1) / stop (0):;
#X msg 870 200 1;
#X msg 905 200 0;
#X obj 945 200 s oscplayseq;
#X text 870 225 Sequencer tempo (ms - click and drag to adjust):;
#X floatatom 870 245 6 50 2000 0 - - -;
#X obj 940 245 s osctempo;
#X text 30 830 NOTES:;
#X text 30 858 - Each voice listens internally via [r osctrig] / [r oscwall] / [r osctempo] / [r oscplayseq].;
#X text 30 886 - VOICE PARAMETERS sliders use [hsl] SEND-NAME to talk to voice abstractions' control buses.;
#X text 30 914 - All voices use [vline~] -> [*~] envelopes for click-free attack/release (assignment requirement).;
#X text 30 942 - Per-voice + master volume use [hsl] -> [pack f 20] -> [line~] -> [*~] (20ms ramp).;
#X text 30 970 - Voice volume sliders start at 0 - raise them after enabling DSP.;
#X text 30 998 - Sequencer voice silent until partner adds [outlet~] to sequencer.pd.;
#X connect 8 0 9 0;
#X connect 18 0 22 0;
#X connect 19 0 20 0;
#X connect 20 0 21 0;
#X connect 21 0 22 1;
#X connect 22 0 37 0;
#X connect 25 0 29 0;
#X connect 26 0 27 0;
#X connect 27 0 28 0;
#X connect 28 0 29 1;
#X connect 29 0 37 1;
#X connect 32 0 36 0;
#X connect 33 0 34 0;
#X connect 34 0 35 0;
#X connect 35 0 36 1;
#X connect 36 0 38 1;
#X connect 37 0 38 0;
#X connect 38 0 43 0;
#X connect 40 0 41 0;
#X connect 41 0 42 0;
#X connect 42 0 43 1;
#X connect 43 0 44 0;
#X connect 43 0 44 1;
#X connect 58 0 67 0;
#X connect 59 0 67 0;
#X connect 60 0 67 0;
#X connect 61 0 67 0;
#X connect 62 0 67 0;
#X connect 63 0 67 0;
#X connect 64 0 67 0;
#X connect 65 0 67 0;
#X connect 66 0 67 0;
#X connect 69 0 70 0;
#X connect 72 0 74 0;
#X connect 73 0 74 0;
#X connect 76 0 77 0;
