#N canvas 50 50 600 400 10;
#X text 20 20 pulse.pd - NES-style pulse/square wave voice (used for Pulse 1 and Pulse 2);
#X text 20 40 Inlets: trigger \, pitch (MIDI) \, volume (0-1) \, duty cycle;
#X text 20 60 Outlet: audio signal;
