#N canvas 39 57 1920 1146 10;
#X text 177 277 creation arguments are OSC address;
#X text 179 238 set message to change OSC address;
#X text 164 48 1 Set IP Address : network address;
#X text 164 68 2 Set Ports (sending and listening);
#X text 164 87 3 Set OSC Addresses (routing osc data;
#X text 155 26 Key Settings;
#X floatatom 43 194 5 0 0 0 - - - 0;
#N canvas 1099 23 623 462 oscReceive 0;
#X obj 55 184 netreceive -u -b;
#X msg 78 143 listen 0;
#X text 152 143 stop listening;
#X text 64 58 packets from network;
#X text 173 177 UDP packets \, binary output, f 13;
#X obj 45 314 print;
#X obj 45 272 oscparse;
#X text 150 114 listen on port 8000;
#X obj 177 269 oscparse;
#X obj 177 293 list trim;
#X floatatom 140 380 5 0 0 0 - - - 0;
#X text 241 267 Parse the OSC message;
#X obj 177 319 route unity;
#X obj 139 357 route trigger;
#X obj 140 407 s osctrig;
#X msg 66 115 listen 8000;
#X obj 66 84 loadbang;
#X floatatom 244 382 5 0 0 0 - - - 0;
#X obj 243 359 route tempo;
#X obj 244 409 s osctempo;
#X floatatom 339 382 5 0 0 0 - - - 0;
#X obj 338 359 route playseq;
#X obj 339 409 s oscplayseq;
#X floatatom 437 382 5 0 0 0 - - - 0;
#X obj 436 359 route colwall;
#X obj 437 409 s oscwall;
#X connect 0 0 6 0;
#X connect 0 0 8 0;
#X connect 1 0 0 0;
#X connect 6 0 5 0;
#X connect 8 0 9 0;
#X connect 9 0 12 0;
#X connect 10 0 14 0;
#X connect 12 0 13 0;
#X connect 12 0 18 0;
#X connect 12 0 21 0;
#X connect 12 0 24 0;
#X connect 13 0 10 0;
#X connect 15 0 0 0;
#X connect 16 0 15 0;
#X connect 17 0 19 0;
#X connect 18 0 17 0;
#X connect 20 0 22 0;
#X connect 21 0 20 0;
#X connect 23 0 25 0;
#X connect 24 0 23 0;
#X restore 47 142 pd oscReceive;
#X obj 47 36 tgl 15 0 empty empty empty 17 7 0 10 #fcfcfc #000000 #000000 0 1;
#X msg 47 61 \; pd dsp \$1;
#X obj 44 278 oscformat PD message;
#X msg 76 239 set PD message;
#N canvas 727 97 450 300 oscSend 0;
#X msg 158 207 disconnect;
#X obj 61 253 netsend -u -b;
#X obj 59 55 list prepend send;
#X obj 59 80 list trim;
#X msg 150 175 connect 127.0.0.1 8001;
#X obj 59 29 r oscOut;
#X text 301 163 send to port 8001;
#X msg 147 148 connect localhost 8001;
#X obj 147 108 loadbang;
#X connect 0 0 1 0;
#X connect 2 0 3 0;
#X connect 3 0 1 0;
#X connect 4 0 1 0;
#X connect 5 0 2 0;
#X connect 7 0 1 0;
#X connect 8 0 7 0;
#X restore 47 118 pd oscSend;
#X obj 44 313 s oscOut;
#X obj 606 824 *~;
#X obj 597 869 dac~;
#X obj 613 493 mtof;
#X obj 612 452 + 0;
#X obj 596 171 tgl 15 0 empty empty empty 17 7 0 10 #fcfcfc #000000 #000000 0 1;
#X floatatom 653 175 5 0 0 0 - - - 0;
#X obj 576 238 f;
#X obj 619 240 + 1;
#X obj 775 697 vline~;
#X floatatom 772 490 5 0 0 0 - - - 0;
#X obj 772 437 loadbang;
#X msg 616 353 0;
#X obj 562 693 phasor~;
#X floatatom 560 634 8 0 0 0 - - - 0;
#X obj 637 692 phasor~;
#X obj 594 753 +~;
#X obj 603 784 -~ 1;
#X msg 638 630 0;
#X msg 686 630 0.5;
#X obj 659 600 bng 15 250 50 0 empty empty empty 17 7 0 10 #fcfcfc #000000 #000000;
#X obj 658 575 loadbang;
#X obj 713 124 r osctempo;
#X obj 638 98 loadbang;
#X obj 544 99 r oscplayseq;
#X text 530 47 Sequence playback: tempo increases as more cubes are collected.;
#X obj 606 205 metro 400;
#X obj 596 273 mod 16;
#X obj 636 661 * 3;
#X obj 1389 965 *~;
#X obj 1380 1010 dac~;
#X obj 1396 634 mtof;
#X obj 1395 593 + 0;
#X obj 1378 345 metro 4000;
#X obj 1380 312 tgl 15 0 empty empty empty 17 7 0 10 #fcfcfc #000000 #000000 0 1;
#X floatatom 1436 316 5 0 0 0 - - - 0;
#X obj 1359 379 f;
#X obj 1402 381 + 1;
#X obj 1380 446 select 0 1 2 3;
#X obj 1558 838 vline~;
#X floatatom 1542 531 5 0 0 0 - - - 0;
#X obj 1542 478 loadbang;
#X obj 1379 414 mod 4;
#X msg 1353 499 0;
#X obj 1345 834 phasor~;
#X floatatom 1343 775 5 0 0 0 - - - 0;
#X obj 1420 833 phasor~;
#X obj 1419 802 * -1;
#X obj 1388 892 +~;
#X obj 1386 925 -~ 1;
#X msg 1421 771 0;
#X msg 1469 771 0.5;
#X obj 1442 741 bng 15 250 50 0 empty empty empty 17 7 0 10 #fcfcfc #000000 #000000;
#X obj 1441 716 loadbang;
#X obj 1496 265 r osctempo;
#X obj 1421 239 loadbang;
#X msg 1437 283 500;
#X obj 1327 240 r oscplayseq;
#X msg 1392 499 -5;
#X msg 1433 499 -3;
#X msg 1475 499 -1;
#X msg 1558 786 0.5 25 \, 0 100 75;
#X msg 1542 505 48;
#X text 1313 188 Sequence playback: tempo increases as more cubes are collected.;
#X obj 1399 975 *~;
#X obj 1390 1020 dac~;
#X obj 1406 644 mtof;
#X obj 1405 603 + 0;
#X obj 1388 355 metro 4000;
#X obj 1390 322 tgl 15 0 empty empty empty 17 7 0 10 #fcfcfc #000000 #000000 0 1;
#X floatatom 1446 326 5 0 0 0 - - - 0;
#X obj 1369 389 f;
#X obj 1412 391 + 1;
#X obj 1390 456 select 0 1 2 3;
#X obj 1568 848 vline~;
#X floatatom 1552 541 5 0 0 0 - - - 0;
#X obj 1552 488 loadbang;
#X obj 1389 424 mod 4;
#X msg 1363 509 0;
#X obj 1355 844 phasor~;
#X floatatom 1353 785 5 0 0 0 - - - 0;
#X obj 1430 843 phasor~;
#X obj 1429 812 * -1;
#X obj 1398 902 +~;
#X obj 1396 935 -~ 1;
#X msg 1431 781 0;
#X msg 1479 781 0.5;
#X obj 1452 751 bng 15 250 50 0 empty empty empty 17 7 0 10 #fcfcfc #000000 #000000;
#X obj 1451 726 loadbang;
#X obj 1506 275 r osctempo;
#X obj 1431 249 loadbang;
#X msg 1447 293 500;
#X obj 1337 250 r oscplayseq;
#X msg 1402 509 -5;
#X msg 1443 509 -3;
#X msg 1485 509 -1;
#X msg 1568 796 0.5 25 \, 0 100 75;
#X msg 1552 515 48;
#X text 1323 198 Sequence playback: tempo increases as more cubes are collected.;
#X obj 740 169 select 0 1 2 3;
#X msg 697 205 1;
#X msg 729 203 2;
#X msg 767 203 8;
#X msg 803 204 16;
#X msg 655 353 4;
#X msg 696 353 5;
#X msg 733 354 2;
#X obj 597 305 select 0 1 2 3 4 5 6 7 8 9 10 11 12 13 14 15;
#X floatatom 741 241 5 0 0 0 - - - 0;
#X obj 880 331 metro;
#X obj 892 262 / 3;
#X obj 779 558 select 0 1 2;
#X obj 837 445 f;
#X obj 880 447 + 1;
#X obj 857 480 mod 3;
#X msg 824 598 0.5 10 \, 0 200 25;
#X msg 762 625 1 25 \, 0 1500 5;
#X floatatom 797 139 5 0 0 0 - - - 0;
#X msg 765 352 9;
#X msg 832 662 0.5 100 \, 0 100 25;
#X obj 463 681 phasor~;
#X obj 550 727 +~;
#X msg 654 142 900;
#X obj 481 656 / 2;
#X msg 772 464 48;
#X connect 6 0 10 0;
#X connect 8 0 9 0;
#X connect 10 0 13 0;
#X connect 11 0 10 0;
#X connect 14 0 15 0;
#X connect 14 0 15 1;
#X connect 16 0 27 0;
#X connect 17 0 16 0;
#X connect 18 0 39 0;
#X connect 18 0 122 0;
#X connect 19 0 39 1;
#X connect 19 0 123 0;
#X connect 20 0 21 0;
#X connect 20 0 40 0;
#X connect 21 0 20 1;
#X connect 22 0 14 1;
#X connect 23 0 17 1;
#X connect 24 0 137 0;
#X connect 25 0 17 0;
#X connect 26 0 134 0;
#X connect 27 0 26 0;
#X connect 27 0 41 0;
#X connect 27 0 136 0;
#X connect 28 0 29 1;
#X connect 29 0 30 0;
#X connect 30 0 14 0;
#X connect 31 0 26 1;
#X connect 32 0 28 1;
#X connect 33 0 31 0;
#X connect 33 0 32 0;
#X connect 34 0 33 0;
#X connect 35 0 19 0;
#X connect 36 0 135 0;
#X connect 37 0 18 0;
#X connect 37 0 135 0;
#X connect 39 0 20 0;
#X connect 40 0 120 0;
#X connect 41 0 28 0;
#X connect 42 0 43 0;
#X connect 42 0 43 1;
#X connect 44 0 58 0;
#X connect 45 0 44 0;
#X connect 46 0 49 0;
#X connect 46 0 74 0;
#X connect 47 0 46 0;
#X connect 48 0 46 1;
#X connect 49 0 50 0;
#X connect 49 0 55 0;
#X connect 50 0 49 1;
#X connect 51 0 56 0;
#X connect 51 1 71 0;
#X connect 51 2 72 0;
#X connect 51 3 73 0;
#X connect 52 0 42 1;
#X connect 53 0 45 1;
#X connect 54 0 75 0;
#X connect 55 0 51 0;
#X connect 56 0 45 0;
#X connect 57 0 61 0;
#X connect 58 0 57 0;
#X connect 58 0 60 0;
#X connect 59 0 61 1;
#X connect 60 0 59 0;
#X connect 61 0 62 0;
#X connect 62 0 42 0;
#X connect 63 0 57 1;
#X connect 64 0 59 1;
#X connect 65 0 63 0;
#X connect 65 0 64 0;
#X connect 66 0 65 0;
#X connect 67 0 48 0;
#X connect 68 0 69 0;
#X connect 69 0 48 0;
#X connect 70 0 47 0;
#X connect 70 0 69 0;
#X connect 71 0 45 0;
#X connect 72 0 45 0;
#X connect 73 0 45 0;
#X connect 74 0 52 0;
#X connect 75 0 53 0;
#X connect 77 0 78 0;
#X connect 77 0 78 1;
#X connect 79 0 93 0;
#X connect 80 0 79 0;
#X connect 81 0 84 0;
#X connect 81 0 109 0;
#X connect 82 0 81 0;
#X connect 83 0 81 1;
#X connect 84 0 85 0;
#X connect 84 0 90 0;
#X connect 85 0 84 1;
#X connect 86 0 91 0;
#X connect 86 1 106 0;
#X connect 86 2 107 0;
#X connect 86 3 108 0;
#X connect 87 0 77 1;
#X connect 88 0 80 1;
#X connect 89 0 110 0;
#X connect 90 0 86 0;
#X connect 91 0 80 0;
#X connect 92 0 96 0;
#X connect 93 0 92 0;
#X connect 93 0 95 0;
#X connect 94 0 96 1;
#X connect 95 0 94 0;
#X connect 96 0 97 0;
#X connect 97 0 77 0;
#X connect 98 0 92 1;
#X connect 99 0 94 1;
#X connect 100 0 98 0;
#X connect 100 0 99 0;
#X connect 101 0 100 0;
#X connect 102 0 83 0;
#X connect 103 0 104 0;
#X connect 104 0 83 0;
#X connect 105 0 82 0;
#X connect 105 0 104 0;
#X connect 106 0 80 0;
#X connect 107 0 80 0;
#X connect 108 0 80 0;
#X connect 109 0 87 0;
#X connect 110 0 88 0;
#X connect 112 0 113 0;
#X connect 112 1 114 0;
#X connect 112 2 115 0;
#X connect 112 3 116 0;
#X connect 113 0 121 0;
#X connect 114 0 121 0;
#X connect 115 0 121 0;
#X connect 116 0 121 0;
#X connect 117 0 17 0;
#X connect 118 0 17 0;
#X connect 119 0 17 0;
#X connect 120 0 25 0;
#X connect 120 1 117 0;
#X connect 120 2 118 0;
#X connect 120 3 117 0;
#X connect 120 4 118 0;
#X connect 120 5 117 0;
#X connect 120 6 119 0;
#X connect 120 7 117 0;
#X connect 120 8 131 0;
#X connect 120 9 117 0;
#X connect 120 10 131 0;
#X connect 120 11 117 0;
#X connect 120 12 131 0;
#X connect 120 13 117 0;
#X connect 120 14 25 0;
#X connect 120 15 117 0;
#X connect 121 0 40 1;
#X connect 122 0 125 0;
#X connect 123 0 122 1;
#X connect 124 0 129 0;
#X connect 124 1 132 0;
#X connect 124 2 128 0;
#X connect 125 0 126 0;
#X connect 125 0 127 0;
#X connect 126 0 125 1;
#X connect 127 0 124 0;
#X connect 128 0 22 0;
#X connect 129 0 22 0;
#X connect 130 0 112 0;
#X connect 131 0 17 0;
#X connect 132 0 22 0;
#X connect 133 0 134 0;
#X connect 134 0 29 0;
#X connect 135 0 19 0;
#X connect 136 0 133 0;
#X connect 137 0 23 0;
