#N canvas 50 50 600 400 10;
#X text 20 20 sequencer.pd - step sequencer playback \, tempo increases as cubes are collected;
#X text 20 40 Uses NES Triangle channel (optionally add a pulse bass line);
#X text 20 60 Listens for: /unity/tempo (int ms) \, /unity/playseq (0/1);
#X text 20 80 Outputs: audio signal;
