#N canvas 725 0 1185 1136 10;
#X obj 608 954 *~;
#X obj 517 578 mtof;
#X obj 516 537 + 0;
#X obj 538 260 tgl 15 0 empty empty empty 17 7 0 10 #fcfcfc #000000 #000000 0 1;
#X floatatom 620 260 5 0 0 0 - - - 0;
#X obj 518 327 f;
#X obj 561 329 + 1;
#X obj 843 723 vline~;
#X floatatom 707 537 5 0 0 0 - - - 0;
#X obj 707 484 loadbang;
#X msg 558 442 0;
#X obj 523 711 phasor~;
#X floatatom 521 652 8 0 0 0 - - - 0;
#X obj 596 883 +~;
#X obj 605 914 -~ 1;
#X msg 647 648 0.5;
#X obj 620 618 bng 15 250 50 0 empty empty empty 17 7 0 10 #fcfcfc #000000 #000000;
#X obj 619 593 loadbang;
#X obj 583 51 loadbang;
#X obj 466 122 r oscplayseq;
#X obj 538 362 mod 16;
#X obj 597 679 * 3;
#X msg 744 258 1;
#X msg 776 256 2;
#X msg 814 256 8;
#X msg 850 257 16;
#X msg 597 442 4;
#X msg 638 442 5;
#X msg 675 443 2;
#X obj 539 394 select 0 1 2 3 4 5 6 7 8 9 10 11 12 13 14 15;
#X obj 834 351 / 3;
#X obj 847 584 select 0 1 2;
#X obj 807 493 f;
#X obj 850 495 + 1;
#X obj 827 528 mod 3;
#X floatatom 708 70 5 0 0 0 - - - 0;
#X msg 707 441 9;
#X obj 424 699 phasor~;
#X obj 511 745 +~;
#X obj 442 674 / 2;
#X msg 707 511 48;
#X obj 517 766 lop~ 800;
#X obj 517 817 hip~ 500;
#X obj 585 740 lop~ 400;
#X msg 844 616 0.2 25 \, 0 100 25;
#X msg 891 667 0.7 25 \, 0 100 25;
#X msg 869 641 0.3 25 \, 0 2000 25;
#X text 28 82 Outputs: audio signal (mono) via [outlet~];
#X text 28 115 INTERNAL CONTROL BUSES (set from MockMidterm.pd \, tempo defaulted via loadbang on right):;
#X text 38 164 oscplayseq : 0 to stop the sequencer \, 1 to start it;
#X obj 599 999 outlet~;
#X obj 697 40 r osctrig;
#X msg 648 179 1200;
#X obj 686 133 select 0 1 2 3 4 5 6 7;
#X msg 673 191 900;
#X msg 679 214 600;
#X msg 708 235 300;
#X text 28 32 sequencer.pd v2 - NES Triangle channel + 16-step sequencer (C major arpeggio);
#X text 28 57 Listens for: /unity/osctrig (int count) /unity/playseq (0/1);
#X text 38 142 osctempo : metro interval in ms (default 1200);
#X msg 585 185 1500;
#X obj 546 294 metro 1500;
#X text 716 91 each increasing signal alternates between increasing tempo and expanding arp;
#X text 610 367 arpegiator \, 16-steps;
#X text 283 810 filters on audio to make unique sound;
#X obj 598 710 phasor~;
#X msg 599 648 0.5;
#X text 863 338 each note is played 2.5 times;
#X obj 822 420 metro 500;
#X msg 623 104 0;
#X floatatom 786 298 5 0 0 0 - - - 0;
#X connect 0 0 50 0;
#X connect 1 0 12 0;
#X connect 2 0 1 0;
#X connect 3 0 61 0;
#X connect 3 0 68 0;
#X connect 4 0 30 0;
#X connect 4 0 61 1;
#X connect 5 0 6 0;
#X connect 5 0 20 0;
#X connect 6 0 5 1;
#X connect 7 0 0 1;
#X connect 8 0 2 1;
#X connect 9 0 40 0;
#X connect 10 0 2 0;
#X connect 11 0 38 0;
#X connect 12 0 11 0;
#X connect 12 0 21 0;
#X connect 12 0 39 0;
#X connect 13 0 14 0;
#X connect 14 0 0 0;
#X connect 15 0 65 1;
#X connect 16 0 66 0;
#X connect 16 0 15 0;
#X connect 17 0 16 0;
#X connect 18 0 60 0;
#X connect 18 0 69 0;
#X connect 18 0 22 0;
#X connect 19 0 3 0;
#X connect 19 0 60 0;
#X connect 20 0 29 0;
#X connect 21 0 65 0;
#X connect 22 0 70 0;
#X connect 23 0 70 0;
#X connect 24 0 70 0;
#X connect 25 0 70 0;
#X connect 26 0 2 0;
#X connect 27 0 2 0;
#X connect 28 0 2 0;
#X connect 29 0 10 0;
#X connect 29 1 26 0;
#X connect 29 2 27 0;
#X connect 29 3 26 0;
#X connect 29 4 27 0;
#X connect 29 5 26 0;
#X connect 29 6 28 0;
#X connect 29 7 26 0;
#X connect 29 8 36 0;
#X connect 29 9 26 0;
#X connect 29 10 36 0;
#X connect 29 11 26 0;
#X connect 29 12 36 0;
#X connect 29 13 26 0;
#X connect 29 14 10 0;
#X connect 29 15 26 0;
#X connect 30 0 68 1;
#X connect 31 0 44 0;
#X connect 31 1 46 0;
#X connect 31 2 45 0;
#X connect 32 0 33 0;
#X connect 32 0 34 0;
#X connect 33 0 32 1;
#X connect 34 0 31 0;
#X connect 35 0 53 0;
#X connect 36 0 2 0;
#X connect 37 0 38 0;
#X connect 38 0 41 0;
#X connect 39 0 37 0;
#X connect 40 0 8 0;
#X connect 41 0 42 0;
#X connect 42 0 13 0;
#X connect 43 0 13 1;
#X connect 44 0 7 0;
#X connect 45 0 7 0;
#X connect 46 0 7 0;
#X connect 51 0 35 0;
#X connect 52 0 4 0;
#X connect 53 0 52 0;
#X connect 53 1 22 0;
#X connect 53 2 54 0;
#X connect 53 3 23 0;
#X connect 53 4 55 0;
#X connect 53 5 24 0;
#X connect 53 6 56 0;
#X connect 53 7 25 0;
#X connect 54 0 4 0;
#X connect 55 0 4 0;
#X connect 56 0 4 0;
#X connect 60 0 4 0;
#X connect 61 0 5 0;
#X connect 65 0 43 0;
#X connect 66 0 11 1;
#X connect 66 0 37 1;
#X connect 68 0 32 0;
#X connect 69 0 53 0;
#X connect 70 0 20 1;
